<?xml version="1.0" encoding="utf-8"?>
<!-- Generator: Adobe Illustrator 24.1.0, SVG Export Plug-In . SVG Version: 6.00 Build 0)  -->
<svg version="1.1" id="Layer_1" xmlns="http://www.w3.org/2000/svg" xmlns:xlink="http://www.w3.org/1999/xlink" x="0px" y="0px"
	 viewBox="0 0 512 512" style="enable-background:new 0 0 512 512;" xml:space="preserve">
<path d="M384.9,0.9c4.8,2.3,8.6,4.9,12.1,9.1c0.7,0.8,1.5,1.7,2.2,2.6c1.7,2.4,2.4,3.6,2.8,6.4c0.1,1,0.2,2.1,0.4,3.1
	C401.4,32,395,39.4,388,46c-4.8,3.9-9.8,6.9-15.4,9.5c-6.4,3.5-9,7.9-12.4,14.2c-1.2,2.2-2.4,4.3-3.6,6.5c-0.6,1.1-1.2,2.2-1.8,3.4
	c-3,5.5-6.1,10.9-9.3,16.3c-1.3,2.2-2.5,4.4-3.8,6.6c-3.1,5.4-6.3,10.9-9.4,16.3c-1.2,2.1-2.5,4.3-3.7,6.4
	c-2.9,5.1-5.9,10.2-8.9,15.3c-1.4,2.4-2.8,4.8-4.2,7.2c-1,1.7-2,3.4-3,5.1c-0.9,1.5-0.9,1.5-1.8,3.1c-0.5,0.9-1.1,1.8-1.6,2.8
	c-1.4,2.3-1.4,2.3-1.1,5.3c2.4,1.8,4.8,3.5,7.3,5.1c8,5.4,15.7,11,22.6,17.7c0.5,0.5,1,0.9,1.5,1.4c1.4,1.3,2.7,2.7,4.1,4
	c2.3,2,2.3,2,4.9,1.5c2.8-0.8,5-1.9,7.5-3.4c0.9-0.6,1.9-1.1,2.8-1.7c1-0.6,2-1.2,3-1.8c2.2-1.3,4.3-2.6,6.5-3.9
	c1.1-0.7,2.2-1.3,3.4-2c5.4-3.2,10.8-6.3,16.3-9.4c2.2-1.2,4.3-2.5,6.5-3.8c1.1-0.6,2.2-1.2,3.3-1.9c2.8-1.6,5.7-3.3,8.5-4.9
	c1.7-1,3.5-2,5.2-3c2.2-1.3,4.5-2.6,6.7-3.9c4.4-2.6,8.8-5.1,13.4-7.3c8.6-4.2,11.9-8.7,15.8-17.1c4.7-10.2,13.2-18.2,23.3-22.9
	c5.3-1.7,10.5-1.5,15.6,0.7c7,4,11.6,11.9,13.8,19.5c0.8,5.8,0.9,11.5-2.6,16.4c-9.2,10-22.7,11.9-35.5,12.5c-3.9,0.1-3.9,0.1-6-0.1
	c-7.5-0.6-12.6,2.8-18.9,6.6c-1.1,0.6-2.2,1.3-3.4,1.9c-3.2,1.9-6.4,3.8-9.6,5.7c-1.5,0.9-3,1.8-4.5,2.6c-2.7,1.6-5.3,3.1-8,4.7
	c-5.7,3.4-11.5,6.7-17.2,10c-11.8,6.8-23.6,13.7-35.3,20.7c2.3,4.3,4.9,8.2,7.8,12.2c4.2,5.7,7.6,11.7,10.8,18
	c0.6,1.1,1.1,2.2,1.7,3.3c23.5,46.6,24.6,98.9,8.5,147.9c-0.4,1.3-0.4,1.3-0.8,2.5c-0.3,0.9-0.6,1.8-0.9,2.7
	c-0.7,2.1-1.4,4.2-2.1,6.3c0.6,0.2,1.1,0.4,1.7,0.6c21.9,7.8,46,17.7,56.6,40.1c4.1,9.7,5.1,18.7,1.8,28.9
	c-5.6,13.4-17.3,22.9-30.4,28.4c-15.4,6.1-31,9.2-47.6,9.3c-1.3,0-1.3,0-2.5,0c-2.7,0-5.4,0-8.1,0c-0.9,0-1.9,0-2.8,0
	c-21.8,0-43.3-1.7-64.9-5.4c-9.3-1.5-17.1,0.4-26,3c-36,10-75.2,9.2-110.7-2.9c-1-0.3-1-0.3-1.9-0.6c-14-4.6-27.8-11.2-39.8-19.7
	c-3.5-2.4-5.7-3.4-10-2.8c-1.1,0.1-2.2,0.3-3.4,0.5c-1.3,0.2-2.5,0.4-3.8,0.7c-0.7,0.1-1.5,0.2-2.2,0.4c-22.5,3.7-44.3,10.9-63,24.3
	c-2.9,2-3.9,2.4-7.6,3c-3.2-0.6-3.2-0.6-5.6-2.2c-2.2-3.4-2.2-5.4-1.6-9.4c20.6-23.6,61.6-32,91.1-34.4c30.1-2,60.2,1,89.8,6.3
	c0.9,0.2,1.8,0.3,2.8,0.5c4.5,0.8,8.9,1.6,13.4,2.5c1.6,0.3,3.3,0.6,4.9,0.9c1.1,0.2,1.1,0.2,2.2,0.5c8.7,1.6,15.4-2.8,23-6.6
	c1.1-0.5,2.1-1.1,3.2-1.6c14.5-7.4,28.3-15.8,41.7-25c-13.2-8.3-13.2-8.3-27.9-10.4c-2.9,1.8-5.5,3.7-8.1,5.9
	c-4.2,3.2-8.9,5.5-13.5,7.9c-1,0.6-2,1.1-3.1,1.7c-7.2,3.9-14.6,7.4-22.1,10.8c-1,0.4-1.9,0.9-2.9,1.3c-8.4,3.6-8.4,3.6-13.5,2.9
	c-2.9-1.5-2.9-1.5-5-4c-0.7-2.8-0.9-5.2,0-8c4-4.1,9.1-6,14.3-8.2c13.3-5.9,26.2-12.2,38.7-19.8c-2-1.2-4-2.5-5.9-3.7
	c-1.1-0.7-2.2-1.4-3.3-2.1c-0.6-0.3-1.2-0.7-1.8-1.1c-1.9-1.2-1.9-1.2-4-2.7c-2.3-1.6-4.2-2.7-7-3.4c-4.2,0.9-7.7,2.9-11.4,5.1
	c-2.2,1.2-4.4,2.3-6.7,3.5c-1.1,0.6-2.3,1.2-3.4,1.8C165,433.4,123.3,445,87,445c0.1,0.9,0.2,1.8,0.3,2.8c-0.3,3.2-0.3,3.2-2.4,5.7
	c-2.9,1.6-2.9,1.6-6.3,1.8c-15-4.9-27-30-33.9-43.2C26.7,376.2,18.9,334.7,26,295c0.2-1.3,0.2-1.3,0.5-2.6
	c6.7-36.7,23.4-68.9,48.5-96.4c0.5-0.5,0.9-1,1.4-1.6c26-28.2,61.7-45.6,98.9-53.4c1.1-0.2,2.1-0.4,3.2-0.7
	c11.2-2.2,11.2-2.2,16.3,0.7c1.9,3.2,1.7,6.4,1.1,9.9c-1.3,2.4-1.3,2.4-4,4c-1.9,0.3-3.8,0.5-5.7,0.6c-1,0.1-2,0.2-3,0.2
	c-0.8,0.1-1.5,0.1-2.3,0.2c1.4,3.4,2.9,6.8,4.3,10.2c0.4,1,0.8,1.9,1.2,2.9c0.4,0.9,0.8,1.9,1.2,2.8c0.4,0.9,0.7,1.7,1.1,2.6
	c1.2,2.6,2.6,5,4.2,7.5c0.7-0.3,1.4-0.5,2.1-0.8c21.3-8,42.7-14.4,64.9-19.2c-9.5-3.6-19.4-5.4-29.4-6.5c-0.7-0.1-1.4-0.2-2.2-0.2
	c-2-0.2-4-0.4-6-0.6c-3.4-0.6-4.9-1.2-7.3-3.6c-1.2-3.6-1.3-5.3,0.2-8.8c1.8-2.2,1.8-2.2,4.8-4.2c24.4-1.3,49.7,7.9,72,17
	c0.8-1.5,0.8-1.5,1.7-3.1c5.4-9.9,11-19.6,16.7-29.3c4.6-7.8,9.1-15.7,13.6-23.6c5.2-9.1,10.4-18.1,15.6-27.1c0.6-1,1.1-1.9,1.7-2.9
	c0.5-0.9,1.1-1.8,1.6-2.7c0.8-1.3,0.8-1.3,1.5-2.7c1-1.7,2.1-3.5,3.3-5.1c4-6,5-10,4.4-17.1C351.6,29.1,353.3,16,361,6
	C367.7-0.8,375.8-2,384.9,0.9z M375,15c-5.5,7.9-7.3,14.4-7,24c7.9-2.2,13.9-9.2,18-16c-1.4-4.1-3.4-4.9-7-7
	C377.7,15.6,376.3,15.3,375,15z M466,130c-4,4.6-4,4.6-6,10c9-0.3,16-2,24-6c-0.5-5-1.9-8.1-5-12C473.6,122,469.8,126.4,466,130z
	 M154,163.3c-1.4,0.5-1.4,0.5-2.9,0.9c-0.9,0.3-1.8,0.6-2.7,0.9c-0.8,0.3-1.7,0.6-2.5,0.8c-2.3,0.9-2.3,0.9-2.9,4
	c0.6,2.2,0.6,2.2,1.6,4.7c0.4,0.9,0.8,1.9,1.2,2.9c0.4,1,0.9,2,1.3,3.1c0.5,1.1,0.9,2.1,1.4,3.2c18.6,43.1,47.6,85.5,84.7,114.9
	c2.9,2.3,5.7,4.7,8.4,7.1C275.8,334.3,332.5,367,378,367c1.3-7.3,2.6-14.5,4-22c-3.3-1.7-5.9-2.6-9.5-3.5c-1.1-0.3-2.1-0.5-3.2-0.8
	c-1.1-0.3-2.2-0.5-3.3-0.8c-1.1-0.3-2.2-0.5-3.3-0.8c-2-0.5-4.1-1-6.1-1.5c-2.2-0.5-4.4-1.1-6.6-1.6c-1.2-7.3-1.2-7.3-0.2-10.4
	c1.2-1.6,1.2-1.6,3.2-2.6c6.1-0.4,11.4,0.9,17.2,2.5c1.8,0.5,3.6,0.9,5.3,1.4c0.8,0.2,1.6,0.4,2.4,0.6c2.2,0.6,2.2,0.6,5.1,0.5
	c0.2-8-0.3-15.7-1.3-23.6c-0.1-1.1-0.2-2.2-0.4-3.3c-0.1-1-0.3-2.1-0.4-3.1c-0.1-0.9-0.2-1.8-0.3-2.8c-0.5-2.6-0.5-2.6-3.6-4.3
	c-3-0.5-5.9-0.9-8.9-1.1c-0.9-0.1-1.8-0.2-2.8-0.3c-23.9-1.9-47.7-0.7-71.3,3.4c4.8,4.3,10.4,7,16.1,9.9c1,0.5,2.1,1.1,3.1,1.6
	c4.3,2.2,8.6,4.4,13,6.4c5.4,2.4,5.4,2.4,7.9,4.1c1.4,3.8,1.3,5.5,0.5,9.4c-2.5,2.7-5,2.4-8.5,2.6c-3.4-1-3.4-1-7-2.7
	c-0.7-0.3-1.3-0.6-2-0.9c-2.3-1.1-4.6-2.2-7-3.4c-1.3-0.7-1.3-0.7-2.7-1.3c-13.4-6.6-26.1-14-38.3-22.7c-0.6-0.4-1.1-0.8-1.7-1.2
	c-18.2-13-36-28.4-49.9-45.9c-1.5-1.9-3.1-3.7-4.6-5.5c-12.2-14-22.1-30-30.7-46.4c-0.3-0.6-0.7-1.3-1-1.9c-6-11.4-11-23.2-16-35.1
	C161.4,160,157.3,162.2,154,163.3z M122.5,178.1c-0.7,0.4-1.3,0.9-2,1.3c-0.7,0.5-1.4,0.9-2.1,1.4c-1,0.7-1,0.7-2.1,1.4
	c-1.3,0.9-2.5,1.7-3.8,2.6c-1.5,1.1-3.1,2.1-4.7,3.1c2,6.3,4.3,12.4,7.1,18.4c0.4,0.9,0.8,1.7,1.2,2.6c5.2,11.2,10.6,22.2,17.3,32.6
	c0.6,0.9,1.2,1.9,1.8,2.8c1.2,1.8,2.4,3.6,3.6,5.4c3.2,5,5,8.1,4.1,14.1c-1,1.9-1,1.9-3,3c-4.9,1.1-4.9,1.1-8,0c-3-2.9-4.9-6.4-7-10
	c-0.7-1.2-1.5-2.4-2.2-3.6c-10.2-16.7-19.3-34.2-26.8-52.4c-3.2-0.3-3.2-0.3-5.5,2.2c-1,1-1.9,1.9-2.9,2.9c-0.5,0.5-0.9,0.9-1.4,1.4
	c-3.5,3.6-6.4,7.4-9.2,11.5c14.5,31.9,32.6,61.9,55,89c0.8,1,1.7,2,2.5,3c9.1,10.9,18.7,21.3,28.7,31.3c0.6,0.7,1.3,1.3,2,2
	c4.4,4.4,9,8.6,13.8,12.6c0.6,0.5,1.3,1.1,1.9,1.7c44.2,37.5,100.4,71.1,158.1,81.3c1.9-2.4,3.9-4.7,5.8-7.1c0.5-0.7,1.1-1.3,1.7-2
	c0.5-0.7,1.1-1.3,1.6-2c0.5-0.6,1-1.2,1.5-1.8c1.8-2.6,3.1-5.2,4.4-8.1c-0.8-0.2-1.6-0.4-2.4-0.6c-59.3-15-114.6-41.5-160.1-83.1
	c-2.1-1.9-4.2-3.8-6.4-5.6c-4.3-3.7-8.3-7.6-12.3-11.7c-0.7-0.7-1.3-1.3-2-2c-4.5-4.5-8.8-9.2-12.9-14c-0.5-0.6-1-1.2-1.6-1.8
	c-1.5-1.7-2.9-3.5-4.3-5.2c-0.5-0.6-1-1.1-1.5-1.7c-3.2-4-4.5-6.9-4.7-12.2c0.9-2.4,0.9-2.4,3-4c3.6-0.9,4.7-1.2,8,0
	c4.6,3.9,8.2,8.7,11.9,13.4c5.3,6.6,11,12.8,17,18.7c1.5,1.5,2.9,2.9,4.4,4.4c6.2,6.2,12.8,11.9,19.7,17.4c1,0.9,2.1,1.7,3.1,2.6
	c39.4,33.8,88.8,57.4,139.1,69.6c0.9,0.2,1.7,0.4,2.6,0.6c4.6,1.1,4.6,1.1,9.2,0.2c1.8-2.8,2.9-5.8,4.2-8.8c0.6-1.2,0.6-1.2,1.1-2.5
	c0.4-0.8,0.7-1.6,1.1-2.4c0.5-1.1,0.5-1.1,1-2.2c0.7-2.4,0.4-3.7-0.4-6.1c-0.7-0.2-1.5-0.3-2.2-0.5c-47.3-10.6-94.2-29.2-132.1-60.2
	c-1.8-1.5-3.6-2.9-5.4-4.3c-15.5-12.3-30.5-25.8-43.2-41c-0.4-0.5-0.9-1-1.3-1.6C162,245.1,142.3,211.9,129,176
	C125.7,176,125.1,176.4,122.5,178.1z M211,192.3c-1.5,0.5-1.5,0.5-3,1c-0.9,0.3-1.8,0.6-2.7,1c-0.8,0.3-1.6,0.6-2.4,0.8
	c-2,0.7-2,0.7-2.8,2.9c1.3,2.5,2.7,4.9,4.2,7.4c0.4,0.7,0.8,1.3,1.2,2c2,3.3,4.1,6.5,6.5,9.6c6.5-1.3,12.7-3.1,19.1-5.2
	c29.3-9.5,59.2-14.7,89.9-16.8c0-0.7,0-1.3,0-2c-2.3-1.9-4.7-3.6-7.1-5.4c-0.7-0.5-1.3-1-2-1.5c-1.9-1.4-3.9-2.8-5.9-4.2
	c-0.6-0.4-1.1-0.8-1.7-1.2c-3.3-2.3-3.3-2.3-7.3-2.8c-1.1,1.8-1.1,1.8-2.1,4c-2.2,3.8-2.2,3.8-5.1,4.7c-2.5,0.1-4.4,0-6.8-0.7
	c-2.7-2.8-3-4.5-3.2-8.3c0.1-0.9,0.1-1.8,0.2-2.7C257.6,175,231.9,185.2,211,192.3z M223,231c4.9,6.8,10.3,12.9,16,19
	c5.9-1.5,11.8-2.9,17.6-4.5c10-2.6,20-5,30.2-6.8c0.8-0.2,1.7-0.3,2.6-0.5c16-2.7,32.1-3.6,48.3-3.9c1.8,0,3.6-0.1,5.4-0.1
	c4.3-0.1,8.6-0.2,12.9-0.3c-0.9-1.6-0.9-1.6-1.9-3.3c-0.5-0.9-0.5-0.9-1-1.9c-1.6-2.7-3.5-5.2-5.3-7.8c-0.7-1-1.4-1.9-2.1-2.9
	c-0.8-1.1-0.8-1.1-1.6-2.2c-0.9,0.5-1.9,1-2.8,1.6c-1.2,0.7-2.5,1.3-3.7,2c-0.9,0.5-0.9,0.5-1.8,1c-4.5,2.4-7.5,2.9-12.6,1.4
	c-2.3-3.5-2.3-4.9-2-9c0.3-1,0.7-2,1-3C290,210,251.7,217.1,223,231z M66,234c-14.3,22.1-14.3,22.1-19.6,46.3
	c0.2,0.6,0.4,1.1,0.6,1.7c0.7-0.7,1.3-1.5,2-2.2c8.4-9.3,17.3-17.8,27-25.8c-0.6-2.9-1.5-5.3-2.8-7.9c-0.5-1.1-0.5-1.1-1.1-2.1
	c-0.4-0.7-0.7-1.5-1.1-2.2c-0.4-0.7-0.8-1.5-1.1-2.3c-0.9-1.8-1.9-3.7-2.8-5.5C66.7,234,66.3,234,66,234z M253,262
	c4.1,5,8.4,9.4,13.4,13.5c0.6,0.5,1.2,1.1,1.9,1.7c3.4,2.8,5,3.8,9.5,3.8c1.4-0.3,2.8-0.6,4.2-1c1.7-0.3,3.4-0.6,5.1-0.9
	c0.9-0.2,1.8-0.3,2.8-0.5c28.4-5.1,56.4-5.2,85.1-3.6c-1.7-6-3.6-11.8-6.1-17.6c-0.5-1.2-1-2.4-1.6-3.6c-1-2.7-1-2.7-2.3-3.8
	c-2.6-0.2-5.2-0.4-7.8-0.6c-1-0.1-1-0.1-2.1-0.1C320.7,247.4,286.1,252.5,253,262z M81.3,269.5c-0.6,0.7-1.3,1.4-2,2.1
	c-2.7,2.8-5.4,5.4-8.3,7.9c-6.6,5.7-12.6,11.9-18.2,18.4c-2.9,3.4-5.9,6.6-8.9,9.9c-3.3,3.8-4.2,5.9-4.1,10.9c0,1.1,0,2.2,0,3.4
	c0,1.2,0,2.3,0,3.6c0,1.2,0,2.3,0,3.5c0,6.4,0.3,12.6,1.2,18.9c1,0,2,0,3,0c1.6-2,3-4,4.4-6.1C53.8,334.1,59.7,327,66,320
	c1.2-1.4,1.2-1.4,2.4-2.8c1.5-1.6,2.9-3.3,4.4-4.9c1.5-1.6,3-3.3,4.4-5c4-4.6,8.1-8.8,12.8-12.6c2.6-2.4,4.7-5,6.9-7.8
	c-1.9-3.2-3.9-6.3-5.9-9.5c-0.8-1.4-0.8-1.4-1.7-2.7c-0.5-0.9-1.1-1.7-1.6-2.6c-0.5-0.8-1-1.6-1.5-2.4c-0.4-0.6-0.9-1.2-1.3-1.7
	C82.9,267.8,82.9,267.8,81.3,269.5z M98.5,307.9c-0.7,0.7-1.5,1.4-2.2,2.1c-5.4,5.1-10.4,10.4-15.3,16c-0.7,0.7-1.4,1.5-2.1,2.2
	c-9.7,10.4-18,21.9-26.2,33.5c-0.5,0.6-0.9,1.3-1.4,2c-2.6,3.7-4.3,6.7-4.3,11.4c0.7,2.7,1.5,5.2,2.4,7.9c0.2,0.7,0.5,1.4,0.7,2.1
	c0.6,1.7,1.2,3.4,1.8,5c3.8,0.6,7.2,0.8,11,0c3.1-2.8,4.9-6.4,7-10c1.4-2.1,2.9-4.2,4.3-6.3c0.6-0.8,0.6-0.8,1.1-1.7
	c4.3-6.2,8.8-12.2,13.5-18c0.6-0.8,0.6-0.8,1.3-1.6c9.4-11.6,20.1-22,30.7-32.4c-0.4-0.5-0.8-1-1.2-1.5c-3.8-5.1-7.5-10.2-11.2-15.3
	c-0.5-0.7-1.1-1.4-1.6-2.1C104.2,301,100.5,306,98.5,307.9z M121,341c-1.7,1.9-3.4,3.8-5.1,5.8c-1.9,2.2-3.9,4.3-5.9,6.4
	c-5.8,6.1-11,12.5-16,19.2c-0.6,0.8-1.3,1.7-1.9,2.6c-3.4,4.5-6.4,9.1-9.1,14.1c6.7,0.1,13.1-0.3,19.8-1.2c0.9-0.1,1.8-0.2,2.8-0.3
	c5.8-0.8,8.7-1.8,12.5-6.5c1.1-1.2,1.1-1.2,2.2-2.4c0.7-0.8,1.4-1.6,2.2-2.4c0.8-0.9,1.6-1.8,2.4-2.7c1.9-2.1,3.7-4.2,5.5-6.3
	c5.2-6,11.1-11.6,16.8-17.2c-1.4-3.3-3.2-5.4-5.8-7.9c-2.5-2.4-4.9-4.9-7.1-7.6c-1-1.2-1-1.2-2.1-2.5C128.5,332,123.4,338.7,121,341
	z M156.1,362.4c-0.6,0.7-1.3,1.4-2,2c-0.7,0.7-1.4,1.5-2.1,2.2c-0.7,0.8-1.5,1.5-2.2,2.3c-0.7,0.8-1.5,1.5-2.3,2.3
	c-1.8,1.9-3.7,3.8-5.5,5.7c1.9,1.2,1.9,1.2,3.8,0.6c1.1-0.4,1.1-0.4,2.1-0.7c0.8-0.3,1.6-0.5,2.4-0.8c0.8-0.3,1.6-0.6,2.5-0.9
	c0.8-0.3,1.6-0.5,2.4-0.8c4.5-1.5,8.7-3.2,12.8-5.4c-0.9-1.2-1.8-2.3-2.8-3.4c-0.5-0.6-1-1.3-1.5-1.9
	C161.1,361.1,159.2,360.2,156.1,362.4z M177.1,381.4c-1.9,0.8-3.8,1.6-5.7,2.5c-2.1,0.9-4.2,1.7-6.2,2.6c-1,0.4-2.1,0.9-3.1,1.3
	C129.8,400.9,95.3,404.1,61,406c1.1,3.6,2.2,6.7,4.3,9.8c0.4,0.6,0.9,1.3,1.3,2c0.5,0.7,0.9,1.3,1.4,2c0.5,0.7,0.9,1.3,1.4,2
	c0.8,1.2,1.7,2.5,2.5,3.7c1.1,1.5,2.1,3.1,3.1,4.6c44.8-2.8,87.7-12.8,128-33c-1.4-4.1-4.2-5.6-7.7-7.9c-0.6-0.4-1.2-0.9-1.9-1.3
	c-1.2-0.9-2.5-1.7-3.7-2.5c-1.7-1.2-1.7-1.2-4.5-3.8C181.4,379.7,180.8,380,177.1,381.4z M375,416c-1.3,1.4-1.3,1.4-2.3,3.3
	c-0.4,0.7-0.9,1.4-1.3,2.1c-0.5,0.8-0.9,1.5-1.4,2.3c-13.1,20.8-29.2,38.7-49.1,53.2c-0.7,0.5-1.5,1.1-2.2,1.6
	c-5,3.6-10.2,6.6-15.6,9.5c0,0.3,0,0.7,0,1c17.1,2.4,34,3.3,51.2,3.4c1.4,0,1.4,0,2.7,0c22.9,0.2,48.5-2.3,66.1-18.8
	c4.7-5,6.5-9.1,7.5-16c-1.3-9.6-7.4-17.3-14.6-23.4C405.6,426.6,388.2,416,375,416z M290.3,455.1c-4.6,3.7-9.8,6.6-14.9,9.6
	c-1.1,0.6-2.2,1.3-3.3,1.9c-7.3,4.3-14.6,8.5-22.1,12.3c3.6,2.4,7,2.9,11.2,3.6c0.7,0.1,1.5,0.3,2.2,0.4c8.2,1.4,13.9,1.4,21.2-2.6
	c0.7-0.4,1.4-0.7,2.1-1.1c2.1-1.1,4.1-2.2,6.2-3.3c1.1-0.6,2.2-1.2,3.3-1.8c10.2-5.8,19.5-12.9,28.7-20.2
	C313.5,442.5,300.7,445.8,290.3,455.1z M137,479c3.6,3.1,7.6,4.7,12,6.4c0.8,0.3,1.6,0.6,2.4,0.9c28.3,10.6,56.9,11.8,86.6,8.7
	c-2.9-2.9-6.5-3.1-10.4-3.8c-0.9-0.2-1.7-0.3-2.6-0.5c-2.8-0.5-5.7-1-8.5-1.6c-1-0.2-1.9-0.4-2.9-0.5c-13.2-2.4-26.3-4.7-39.6-6.6
	c-0.7-0.1-1.4-0.2-2.1-0.3c-15-2.2-15-2.2-30.1-2.8c-0.9,0-1.8,0-2.8,0C138,479,138,479,137,479z"/>
</svg>
