<?xml version="1.0" encoding="UTF-8"?>
<svg version="1.1" xmlns="http://www.w3.org/2000/svg" width="512" height="512">
<path d="M0 0 C4.82799492 2.31947346 8.59633752 4.94399083 12.09375 9.05859375 C12.83625 9.90421875 13.57875 10.74984375 14.34375 11.62109375 C16.06213861 14.0145636 16.75568411 15.18503366 17.09375 18.05859375 C17.2175 19.08984375 17.34125 20.12109375 17.46875 21.18359375 C16.51652037 31.0232999 10.05521393 38.47462547 3.09375 45.05859375 C-1.72326129 48.98846564 -6.68876929 51.95722509 -12.3046875 54.58984375 C-18.71376835 58.07750116 -21.35179298 62.46300765 -24.65625 68.80859375 C-25.84979219 70.97291453 -27.04381923 73.13696798 -28.23828125 75.30078125 C-28.8410791 76.41678711 -29.44387695 77.53279297 -30.06494141 78.68261719 C-33.0526666 84.16050952 -36.20657757 89.54040364 -39.34375 94.93359375 C-40.60393563 97.11787201 -41.86304539 99.30277132 -43.12109375 101.48828125 C-46.25745819 106.9330552 -49.39624383 112.37642481 -52.53710938 117.81860352 C-53.77500951 119.96439409 -55.01200118 122.11070903 -56.24804688 124.25756836 C-59.18437494 129.35544627 -62.12933229 134.44777922 -65.10372925 139.52352905 C-66.51431667 141.93183251 -67.92018561 144.34287405 -69.32568359 146.75415039 C-70.32449587 148.46314932 -71.3301523 150.16814235 -72.3359375 151.87304688 C-73.23505859 153.41702148 -73.23505859 153.41702148 -74.15234375 154.9921875 C-74.68529053 155.90025146 -75.2182373 156.80831543 -75.76733398 157.74389648 C-77.12699415 160.07727399 -77.12699415 160.07727399 -76.90625 163.05859375 C-74.50453216 164.89679686 -72.12843185 166.54834258 -69.59375 168.18359375 C-61.56301485 173.53476239 -53.9223692 179.15432648 -46.96484375 185.875 C-46.47411377 186.34284912 -45.98338379 186.81069824 -45.4777832 187.29272461 C-44.10896004 188.60887407 -42.76082128 189.94643782 -41.4140625 191.28515625 C-39.09390625 193.33486552 -39.09390625 193.33486552 -36.55102539 192.83398438 C-33.74255243 192.01060118 -31.59308297 190.9248053 -29.08203125 189.42578125 C-28.14955566 188.8747876 -27.21708008 188.32379395 -26.25634766 187.75610352 C-25.25394043 187.15467529 -24.2515332 186.55324707 -23.21875 185.93359375 C-21.04599019 184.64773216 -18.87279843 183.36260023 -16.69921875 182.078125 C-15.57692871 181.41248535 -14.45463867 180.7468457 -13.29833984 180.06103516 C-7.89930895 176.87384274 -2.4657386 173.74731683 2.96875 170.62109375 C5.13807487 169.37118754 7.30734531 168.12118684 9.4765625 166.87109375 C10.55969727 166.2471875 11.64283203 165.62328125 12.75878906 164.98046875 C15.60172323 163.34213949 18.44399478 161.7026723 21.28552246 160.06190491 C23.01064121 159.06598114 24.73627579 158.07095105 26.46191406 157.07592773 C28.69329022 155.78610468 30.92187715 154.49144263 33.14746094 153.19165039 C37.56192854 150.62062044 41.94401484 148.07168548 46.5546875 145.8671875 C55.10749172 141.71087838 58.4241366 137.13069043 62.31640625 128.75 C67.0400326 118.58263475 75.512205 110.59510712 85.65625 105.86328125 C90.95253008 104.11482981 96.15647224 104.33982024 101.28125 106.55859375 C108.294903 110.53253233 112.91285075 118.44995088 115.09375 126.05859375 C115.89895298 131.88399085 115.96438487 137.52109245 112.53125 142.50390625 C103.3281986 152.4572064 89.88004698 154.40288246 77.015625 154.98046875 C73.09375 155.05859375 73.09375 155.05859375 71.02929688 154.84814453 C63.51824133 154.25151928 58.38438615 157.66904645 52.09375 161.43359375 C50.98507568 162.07627197 49.87640137 162.7189502 48.73413086 163.38110352 C45.5095803 165.25543936 42.30038701 167.15382109 39.09375 169.05859375 C37.59587435 169.93630061 36.09729015 170.81280065 34.59765625 171.6875 C31.93943004 173.24156489 29.28826407 174.80688043 26.640625 176.37890625 C20.92585749 179.76148702 15.16281371 183.0603478 9.40625 186.37109375 C-2.4187156 193.17628038 -14.17891534 200.08669151 -25.90625 207.05859375 C-23.59063701 211.40036812 -21.02852292 215.29854782 -18.0703125 219.234375 C-13.85514962 224.95578992 -10.50432513 230.92309645 -7.28125 237.24609375 C-6.71784912 238.34687256 -6.15444824 239.44765137 -5.57397461 240.58178711 C17.93316607 287.16891444 19.01137429 339.52363568 2.93310547 388.53027344 C2.51762451 389.78179199 2.51762451 389.78179199 2.09375 391.05859375 C1.80258301 391.93676758 1.51141602 392.81494141 1.21142578 393.71972656 C0.50830513 395.83362477 -0.19740662 397.94660895 -0.90625 400.05859375 C-0.35388672 400.25380615 0.19847656 400.44901855 0.76757812 400.65014648 C22.70515415 408.48596874 46.73052736 418.35261133 57.36328125 440.73046875 C61.43860341 450.46516056 62.49941645 459.45482385 59.12890625 469.58203125 C53.53624048 482.96222031 41.82907445 492.49389344 28.69140625 497.9453125 C13.29907228 504.00381314 -2.32960829 507.16790329 -18.8828125 507.26171875 C-20.13634773 507.27210426 -20.13634773 507.27210426 -21.41520691 507.28269958 C-24.12060268 507.29996086 -26.82580162 507.30629612 -29.53125 507.30859375 C-30.46021088 507.30993317 -31.38917175 507.31127258 -32.34628296 507.31265259 C-54.1761048 507.30585924 -75.69277788 505.60706041 -97.22973633 501.88549805 C-106.50339962 500.37427096 -114.32251513 502.30080637 -123.21875 504.93359375 C-159.25363479 514.96126545 -198.43189424 514.12058633 -233.90625 502.05859375 C-234.86241211 501.74631836 -234.86241211 501.74631836 -235.83789062 501.42773438 C-249.82071036 496.82346242 -263.65691405 490.2473005 -275.671875 481.72265625 C-279.20752193 479.3265275 -281.35366176 478.33530193 -285.71875 478.93359375 C-286.82863281 479.083125 -287.93851562 479.23265625 -289.08203125 479.38671875 C-290.34402344 479.6084375 -291.60601562 479.83015625 -292.90625 480.05859375 C-293.63247559 480.17525391 -294.35870117 480.29191406 -295.10693359 480.41210938 C-317.63038528 484.07445924 -339.4523839 491.31917591 -358.15625 504.68359375 C-361.01862818 506.68668941 -362.07883261 507.08688598 -365.71875 507.68359375 C-368.90625 507.05859375 -368.90625 507.05859375 -371.34375 505.49609375 C-373.53646887 502.07545232 -373.53632693 500.04908096 -372.90625 496.05859375 C-352.29646839 472.48310586 -311.30653163 464.06150391 -281.84375 461.68359375 C-251.78729614 459.68040703 -221.65487272 462.63906624 -192.07421875 467.94921875 C-191.16366226 468.11235565 -190.25310577 468.27549255 -189.31495667 468.443573 C-184.84675397 469.24998511 -180.38479677 470.08062189 -175.92797852 470.94775391 C-174.30095788 471.2530036 -172.67392402 471.55818288 -171.046875 471.86328125 C-169.94287605 472.08942108 -169.94287605 472.08942108 -168.8165741 472.32012939 C-160.07439381 473.93116552 -153.38542237 469.49170925 -145.78125 465.68359375 C-144.72389648 465.15411133 -143.66654297 464.62462891 -142.57714844 464.07910156 C-128.08645831 456.72295812 -114.29913689 448.24884345 -100.90625 439.05859375 C-114.08524102 430.79781728 -114.08524102 430.79781728 -128.7734375 428.65234375 C-131.70612042 430.43681914 -134.25159643 432.33730881 -136.88330078 434.52441406 C-141.04367306 437.67958898 -145.7460524 439.98485957 -150.34375 442.43359375 C-151.36194824 442.9855542 -152.38014648 443.53751465 -153.42919922 444.10620117 C-160.66931469 447.99126548 -168.0144957 451.55382932 -175.53125 454.87109375 C-176.48443115 455.2976123 -177.4376123 455.72413086 -178.41967773 456.16357422 C-186.82640191 459.77196748 -186.82640191 459.77196748 -191.90625 459.05859375 C-194.78125 457.55859375 -194.78125 457.55859375 -196.90625 455.05859375 C-197.6213593 452.24429262 -197.82525299 449.82641452 -196.90625 447.05859375 C-192.87121722 442.96718326 -187.78715363 441.03785635 -182.59375 438.80859375 C-169.26130755 432.94163884 -156.37100153 426.61298862 -143.90625 419.05859375 C-145.88382724 417.82681071 -147.86325175 416.59816552 -149.84375 415.37109375 C-150.94589844 414.68660156 -152.04804688 414.00210937 -153.18359375 413.296875 C-153.77954346 412.94842529 -154.37549316 412.59997559 -154.98950195 412.2409668 C-156.90625 411.05859375 -156.90625 411.05859375 -158.95385742 409.49536133 C-161.29527198 407.85912574 -163.13898191 406.79205013 -165.90625 406.05859375 C-170.13042839 406.9676535 -173.60524562 409.0054233 -177.34375 411.12109375 C-179.56603119 412.28037964 -181.79274585 413.43119983 -184.0234375 414.57421875 C-185.16135742 415.16267578 -186.29927734 415.75113281 -187.47167969 416.35742188 C-219.90254853 432.42070692 -261.59585773 444.05859375 -297.90625 444.05859375 C-297.803125 444.96609375 -297.7 445.87359375 -297.59375 446.80859375 C-297.90625 450.05859375 -297.90625 450.05859375 -299.96875 452.49609375 C-302.90625 454.05859375 -302.90625 454.05859375 -306.28125 454.24609375 C-321.26291593 449.33830663 -333.26231348 424.26102106 -340.14453125 411.00244141 C-358.18330381 375.22960528 -366.01068724 333.79985679 -358.90625 294.05859375 C-358.68026123 292.77686279 -358.68026123 292.77686279 -358.44970703 291.46923828 C-351.73526465 254.72362995 -335.09677896 222.52101383 -309.90625 195.05859375 C-309.43783691 194.54490234 -308.96942383 194.03121094 -308.48681641 193.50195312 C-282.44295064 165.29455454 -246.76970887 147.85287649 -209.59375 140.12109375 C-208.52527832 139.89695801 -207.45680664 139.67282227 -206.35595703 139.44189453 C-195.10654402 137.24509381 -195.10654402 137.24509381 -190.03125 140.12109375 C-188.17889722 143.31125687 -188.30866789 146.53001368 -188.90625 150.05859375 C-190.21875 152.49609375 -190.21875 152.49609375 -192.90625 154.05859375 C-194.78791853 154.32041955 -196.67980724 154.51330173 -198.57421875 154.65625 C-199.57090576 154.73496338 -200.56759277 154.81367676 -201.59448242 154.89477539 C-202.35736572 154.94883545 -203.12024902 155.00289551 -203.90625 155.05859375 C-202.47479586 158.45700684 -201.03502496 161.85183536 -199.59375 165.24609375 C-199.18962891 166.20580078 -198.78550781 167.16550781 -198.36914062 168.15429688 C-197.97275391 169.08564453 -197.57636719 170.01699219 -197.16796875 170.9765625 C-196.80662842 171.83016357 -196.44528809 172.68376465 -196.07299805 173.56323242 C-194.84838774 176.1823456 -193.43340468 178.60554152 -191.90625 181.05859375 C-191.21515137 180.79755859 -190.52405273 180.53652344 -189.81201172 180.26757812 C-168.54886063 172.29956548 -147.12988233 165.83273603 -124.90625 161.05859375 C-134.38688197 157.50335676 -144.31267866 155.66180767 -154.35546875 154.53125 C-155.07597412 154.45011963 -155.79647949 154.36898926 -156.53881836 154.28540039 C-158.55038387 154.0699335 -160.56423789 153.87615666 -162.578125 153.68359375 C-165.94880173 153.05060282 -167.51342568 152.46888394 -169.90625 150.05859375 C-171.08032634 146.45809297 -171.23384676 144.77930662 -169.65625 141.30859375 C-167.90625 139.05859375 -167.90625 139.05859375 -164.90625 137.05859375 C-140.47146572 135.78117205 -115.169375 144.98951909 -92.90625 154.05859375 C-92.06707031 152.5271875 -92.06707031 152.5271875 -91.2109375 150.96484375 C-85.78447603 141.10758063 -80.19317428 131.35782436 -74.50341797 121.65039062 C-69.91736478 113.8166505 -65.39930477 105.9458348 -60.90625 98.05859375 C-55.73957189 88.99252414 -50.53988104 79.94677427 -45.28125 70.93359375 C-44.72566406 69.98097656 -44.17007812 69.02835937 -43.59765625 68.046875 C-43.06785156 67.14066406 -42.53804688 66.23445313 -41.9921875 65.30078125 C-41.23156006 63.9861792 -41.23156006 63.9861792 -40.45556641 62.64501953 C-39.41085238 60.90097597 -38.31753104 59.18526342 -37.18115234 57.49951172 C-33.22555142 51.51682477 -32.20683567 47.53125842 -32.78125 40.43359375 C-33.26242211 28.18150484 -31.64722089 15.10632961 -23.90625 5.05859375 C-17.20768903 -1.77228447 -9.14446468 -2.96211826 0 0 Z M-9.90625 14.05859375 C-15.43448427 21.99224293 -17.24993923 28.43529532 -16.90625 38.05859375 C-9.01286187 35.83857834 -2.97163968 28.87795708 1.09375 22.05859375 C-0.25719581 18.00575632 -2.28620418 17.18803247 -5.90625 15.05859375 C-7.22949753 14.68723831 -8.56192148 14.34437291 -9.90625 14.05859375 Z M81.09375 129.05859375 C77.09279293 133.61276277 77.09279293 133.61276277 75.09375 139.05859375 C84.04730482 138.75091145 91.10203067 137.05445341 99.09375 133.05859375 C98.620258 128.08692771 97.24282485 124.94862739 94.09375 121.05859375 C88.6820579 121.05859375 84.88651259 125.48340048 81.09375 129.05859375 Z M-230.90625 162.37109375 C-232.31777344 162.83418945 -232.31777344 162.83418945 -233.7578125 163.30664062 C-234.65242187 163.61279297 -235.54703125 163.91894531 -236.46875 164.234375 C-237.29503906 164.51192627 -238.12132812 164.78947754 -238.97265625 165.07543945 C-241.2617278 165.95449137 -241.2617278 165.95449137 -241.90625 169.05859375 C-241.3275999 171.29893816 -241.3275999 171.29893816 -240.2734375 173.72265625 C-239.88631592 174.6672168 -239.49919434 175.61177734 -239.1003418 176.58496094 C-238.6650415 177.60750977 -238.22974121 178.63005859 -237.78125 179.68359375 C-237.33112549 180.74739258 -236.88100098 181.81119141 -236.41723633 182.90722656 C-217.82968419 226.00128966 -188.79499677 268.4080685 -151.66796875 297.85546875 C-148.79156524 300.15008202 -146.01072453 302.53724314 -143.21875 304.93359375 C-109.11265084 333.38479564 -52.41449358 366.05859375 -6.90625 366.05859375 C-5.58625 358.79859375 -4.26625 351.53859375 -2.90625 344.05859375 C-6.2513772 342.38603015 -8.83169881 341.460057 -12.40625 340.5859375 C-13.458125 340.32619141 -14.51 340.06644531 -15.59375 339.79882812 C-16.686875 339.53392578 -17.78 339.26902344 -18.90625 338.99609375 C-19.999375 338.72732422 -21.0925 338.45855469 -22.21875 338.18164062 C-24.24947423 337.68266978 -26.28067564 337.18563415 -28.3125 336.69116211 C-30.51242842 336.15463966 -32.71014832 335.61053263 -34.90625 335.05859375 C-36.12847222 327.72526042 -36.12847222 327.72526042 -35.09375 324.62109375 C-33.90625 323.05859375 -33.90625 323.05859375 -31.90625 322.05859375 C-25.80499105 321.61138105 -20.52191915 322.97211891 -14.65625 324.55859375 C-12.88103234 325.03045477 -11.10502021 325.49933976 -9.328125 325.96484375 C-8.55049805 326.17431641 -7.77287109 326.38378906 -6.97167969 326.59960938 C-4.77079204 327.16705898 -4.77079204 327.16705898 -1.90625 327.05859375 C-1.71936196 319.10151392 -2.23865194 311.39051543 -3.21875 303.49609375 C-3.33669922 302.41779297 -3.45464844 301.33949219 -3.57617188 300.22851562 C-3.70185547 299.20177734 -3.82753906 298.17503906 -3.95703125 297.1171875 C-4.06700439 296.19220459 -4.17697754 295.26722168 -4.2902832 294.31420898 C-4.74030394 291.69506238 -4.74030394 291.69506238 -7.90625 290.05859375 C-10.90590673 289.57216293 -13.82301111 289.20606574 -16.84375 288.93359375 C-17.75962891 288.85012695 -18.67550781 288.76666016 -19.61914062 288.68066406 C-43.47269972 286.7390953 -67.34767248 287.95004776 -90.90625 292.05859375 C-86.1251133 296.37504114 -80.53192924 299.02305557 -74.84375 301.93359375 C-73.81620605 302.46879639 -72.78866211 303.00399902 -71.72998047 303.55541992 C-67.44784669 305.77712836 -63.17721191 307.98362895 -58.76171875 309.9296875 C-53.32961575 312.35344325 -53.32961575 312.35344325 -50.90625 314.05859375 C-49.46857009 317.84884079 -49.5922606 319.56714412 -50.40625 323.43359375 C-52.86248303 326.09451287 -55.38710641 325.84758819 -58.90625 326.05859375 C-62.28125 325.046875 -62.28125 325.046875 -65.90625 323.37109375 C-66.57994629 323.06002686 -67.25364258 322.74895996 -67.94775391 322.4284668 C-70.28146511 321.33253516 -72.59457224 320.20025337 -74.90625 319.05859375 C-76.23994629 318.40503906 -76.23994629 318.40503906 -77.60058594 317.73828125 C-91.03665971 311.09677015 -103.70959298 303.77049162 -115.90625 295.05859375 C-116.47375977 294.65543945 -117.04126953 294.25228516 -117.62597656 293.83691406 C-135.80265022 280.82822693 -153.60650203 265.40700093 -167.57421875 247.94140625 C-169.08429583 246.0746778 -170.62707308 244.23374697 -172.20703125 242.42578125 C-184.37918819 228.44074987 -194.29622216 212.44378874 -202.90625 196.05859375 C-203.23786133 195.43243164 -203.56947266 194.80626953 -203.91113281 194.16113281 C-209.90962502 182.75406828 -214.94107433 170.94450311 -219.90625 159.05859375 C-223.47902991 159.05859375 -227.55719655 161.23103925 -230.90625 162.37109375 Z M-262.375 177.17578125 C-263.02855469 177.61792969 -263.68210937 178.06007812 -264.35546875 178.515625 C-265.03222656 178.98355469 -265.70898438 179.45148438 -266.40625 179.93359375 C-267.42138672 180.62388672 -267.42138672 180.62388672 -268.45703125 181.328125 C-269.71893069 182.18681397 -270.97891235 183.04833291 -272.23632812 183.91357422 C-273.78415846 184.97487894 -275.34470939 186.01756667 -276.90625 187.05859375 C-274.9282057 193.37366241 -272.58024432 199.4102925 -269.84375 205.43359375 C-269.4509082 206.29863525 -269.05806641 207.16367676 -268.65332031 208.05493164 C-263.50214801 219.26025843 -258.00381236 230.25547699 -251.3828125 240.671875 C-250.7856543 241.61168213 -250.18849609 242.55148926 -249.57324219 243.51977539 C-248.4049702 245.33791857 -247.22136392 247.1463268 -246.02050781 248.94311523 C-242.79805996 253.92180687 -241.05488993 257.09133359 -241.90625 263.05859375 C-242.90625 264.99609375 -242.90625 264.99609375 -244.90625 266.05859375 C-249.76181929 267.11063376 -249.76181929 267.11063376 -252.90625 266.05859375 C-255.93309561 263.18240562 -257.82289954 259.64968856 -259.90625 256.05859375 C-260.65002897 254.84363198 -261.39625115 253.63016352 -262.14453125 252.41796875 C-272.35269685 235.67682549 -281.43342056 218.18809898 -288.90625 200.05859375 C-292.08003897 199.73344024 -292.08003897 199.73344024 -294.4296875 202.21875 C-295.38804347 203.17843702 -296.33828896 204.14627592 -297.28125 205.12109375 C-297.75046875 205.58708984 -298.2196875 206.05308594 -298.703125 206.53320312 C-302.21972489 210.10323202 -305.07067394 213.92896389 -307.90625 218.05859375 C-293.36691236 249.98528337 -275.29328649 280.00057785 -252.90625 307.05859375 C-252.07609375 308.06277344 -251.2459375 309.06695312 -250.390625 310.1015625 C-241.29585532 321.01693521 -231.67695857 331.36391837 -221.65625 341.43359375 C-221.00696533 342.08755127 -220.35768066 342.74150879 -219.6887207 343.4152832 C-215.25818848 347.83119135 -210.66601971 352.00091336 -205.90625 356.05859375 C-205.26816406 356.60338379 -204.63007813 357.14817383 -203.97265625 357.70947266 C-159.74771374 395.17782673 -103.59403895 428.83992914 -45.90625 439.05859375 C-43.96176198 436.68903161 -42.02565552 434.31338047 -40.09375 431.93359375 C-39.54654297 431.2684375 -38.99933594 430.60328125 -38.43554688 429.91796875 C-37.90380859 429.26054687 -37.37207031 428.603125 -36.82421875 427.92578125 C-36.33719482 427.32878418 -35.8501709 426.73178711 -35.34838867 426.11669922 C-33.55912155 423.56319967 -32.24836118 420.86814945 -30.90625 418.05859375 C-31.68411865 417.86338135 -32.4619873 417.66816895 -33.26342773 417.46704102 C-92.57674289 402.4526099 -147.90108501 375.9197078 -193.32421875 334.39453125 C-195.42734231 332.49185668 -197.55616251 330.63359817 -199.703125 328.78125 C-203.96407515 325.06020965 -207.98141084 321.1316376 -211.96875 317.12109375 C-212.63712891 316.45658203 -213.30550781 315.79207031 -213.99414062 315.10742188 C-218.50278221 310.59001714 -222.77180397 305.91994845 -226.90625 301.05859375 C-227.4216333 300.45523193 -227.9370166 299.85187012 -228.46801758 299.23022461 C-229.92664422 297.5015791 -231.35671702 295.75288512 -232.78125 293.99609375 C-233.2659375 293.42310547 -233.750625 292.85011719 -234.25 292.25976562 C-237.44812289 288.28891192 -238.70866843 285.31043937 -238.90625 280.05859375 C-237.96875 277.62109375 -237.96875 277.62109375 -235.90625 276.05859375 C-232.35060894 275.12289874 -231.24597885 274.85855559 -227.90625 276.05859375 C-223.31741897 279.98344601 -219.71265595 284.77096934 -215.98535156 289.49121094 C-210.67980414 296.11543712 -205.02440053 302.25311224 -199.00488281 308.22070312 C-197.53212477 309.68272536 -196.07039955 311.15516863 -194.609375 312.62890625 C-188.37328955 318.87366642 -181.81221194 324.55955894 -174.90625 330.05859375 C-173.87874758 330.92203867 -172.85535016 331.79044663 -171.83984375 332.66796875 C-132.40531119 366.48662891 -83.07879291 390.0432461 -32.71875 402.24609375 C-31.85789795 402.45476074 -30.9970459 402.66342773 -30.11010742 402.87841797 C-25.49069594 403.9496912 -25.49069594 403.9496912 -20.90625 403.05859375 C-19.14079292 400.30332691 -17.95684755 397.24443559 -16.65625 394.24609375 C-16.09164062 393.01536133 -16.09164062 393.01536133 -15.515625 391.75976562 C-15.165 390.96505859 -14.814375 390.17035156 -14.453125 389.3515625 C-13.97117676 388.26137817 -13.97117676 388.26137817 -13.47949219 387.14916992 C-12.81644957 384.73109757 -13.09911916 383.40105655 -13.90625 381.05859375 C-14.64858887 380.89367432 -15.39092773 380.72875488 -16.15576172 380.55883789 C-63.50308836 369.91241384 -110.34303566 351.31942142 -148.29296875 320.36865234 C-150.08826242 318.91079129 -151.90273837 317.47883447 -153.71875 316.046875 C-169.220566 303.7404194 -184.18034686 290.25695807 -196.90625 275.05859375 C-197.3492041 274.53475098 -197.7921582 274.0109082 -198.24853516 273.47119141 C-222.90812491 244.20459865 -242.62073449 210.98629266 -255.90625 175.05859375 C-259.16041178 175.05859375 -259.79807492 175.41236428 -262.375 177.17578125 Z M-173.90625 191.37109375 C-175.39487549 191.87745361 -175.39487549 191.87745361 -176.91357422 192.39404297 C-177.81865723 192.71260254 -178.72374023 193.03116211 -179.65625 193.359375 C-180.45546875 193.63950439 -181.2546875 193.91963379 -182.078125 194.20825195 C-184.09388162 194.91521173 -184.09388162 194.91521173 -184.90625 197.05859375 C-183.56269675 199.5970771 -182.17193365 202.00112881 -180.65625 204.43359375 C-180.24761719 205.10648438 -179.83898437 205.779375 -179.41796875 206.47265625 C-177.38793265 209.78859946 -175.31944781 213.0029212 -172.90625 216.05859375 C-166.37377165 214.71386561 -160.16608711 212.91469161 -153.84375 210.80859375 C-124.54180184 201.3442106 -94.6173711 196.09788524 -63.90625 194.05859375 C-63.90625 193.39859375 -63.90625 192.73859375 -63.90625 192.05859375 C-66.24622596 190.1830405 -68.59119591 188.41996183 -71.03125 186.68359375 C-71.69640625 186.20148438 -72.3615625 185.719375 -73.046875 185.22265625 C-74.99027779 183.82035776 -76.9460677 182.43730595 -78.90625 181.05859375 C-79.47569336 180.64834961 -80.04513672 180.23810547 -80.63183594 179.81542969 C-83.93114478 177.4969899 -83.93114478 177.4969899 -87.90625 177.05859375 C-89.04754006 178.85233632 -89.04754006 178.85233632 -90.03125 181.05859375 C-92.23746237 184.84547656 -92.23746237 184.84547656 -95.125 185.765625 C-97.5936446 185.87382858 -99.53365058 185.74888761 -101.90625 185.05859375 C-104.61109537 182.27178337 -104.87552128 180.60146786 -105.09375 176.74609375 C-105.031875 175.85921875 -104.97 174.97234375 -104.90625 174.05859375 C-127.27893262 174.05859375 -153.0558187 184.24087758 -173.90625 191.37109375 Z M-161.90625 230.05859375 C-157.05338276 236.85238969 -151.58548051 242.95285976 -145.90625 249.05859375 C-140.02748019 247.59905044 -134.15228684 246.1297485 -128.29296875 244.59375 C-118.28437287 241.99167182 -108.28185757 239.60034052 -98.09375 237.80859375 C-97.24965576 237.657854 -96.40556152 237.50711426 -95.53588867 237.35180664 C-79.49740368 234.66182195 -63.45550797 233.72727793 -47.21875 233.43359375 C-45.42641666 233.39525507 -43.6340986 233.35619532 -41.84179688 233.31640625 C-37.53007747 233.22220913 -33.21827368 233.13758383 -28.90625 233.05859375 C-29.83002441 231.42168579 -29.83002441 231.42168579 -30.77246094 229.75170898 C-31.29208405 228.83094826 -31.29208405 228.83094826 -31.82220459 227.8915863 C-33.43010997 225.1728085 -35.27728586 222.65769534 -37.15625 220.12109375 C-37.86265625 219.16332031 -38.5690625 218.20554688 -39.296875 217.21875 C-40.09351563 216.14947266 -40.09351563 216.14947266 -40.90625 215.05859375 C-41.83566406 215.57550781 -42.76507813 216.09242188 -43.72265625 216.625 C-44.97084207 217.29132476 -46.21956933 217.95663595 -47.46875 218.62109375 C-48.38237305 219.13446289 -48.38237305 219.13446289 -49.31445312 219.65820312 C-53.82168172 222.01913239 -56.82774745 222.50869769 -61.90625 221.05859375 C-64.2213937 217.5858782 -64.16078763 216.13119578 -63.90625 212.05859375 C-63.57625 211.06859375 -63.24625 210.07859375 -62.90625 209.05859375 C-94.87117618 209.05859375 -133.15996864 216.13188107 -161.90625 230.05859375 Z M-318.90625 233.05859375 C-333.21453489 255.12528986 -333.21453489 255.12528986 -338.49609375 279.37890625 C-338.30144531 279.93320312 -338.10679687 280.4875 -337.90625 281.05859375 C-337.25140625 280.31996094 -336.5965625 279.58132813 -335.921875 278.8203125 C-327.54685673 269.4738728 -318.58805689 261.05287743 -308.90625 253.05859375 C-309.53276427 250.19611965 -310.42795517 247.77777722 -311.75390625 245.16796875 C-312.29047852 244.10449219 -312.29047852 244.10449219 -312.83789062 243.01953125 C-313.21107422 242.28992188 -313.58425781 241.5603125 -313.96875 240.80859375 C-314.34580078 240.06351563 -314.72285156 239.3184375 -315.11132812 238.55078125 C-316.03935673 236.71821844 -316.97232179 234.88815699 -317.90625 233.05859375 C-318.23625 233.05859375 -318.56625 233.05859375 -318.90625 233.05859375 Z M-131.90625 261.05859375 C-127.84047545 266.08756292 -123.5209771 270.4482038 -118.53125 274.55859375 C-117.90992188 275.10773438 -117.28859375 275.656875 -116.6484375 276.22265625 C-113.22039646 279.04158256 -111.67375759 280.0657003 -107.109375 280.0234375 C-105.70317296 279.72519344 -104.30221422 279.40157713 -102.90625 279.05859375 C-101.20205075 278.74926181 -99.49617364 278.44908594 -97.7890625 278.15625 C-96.86585205 277.98899414 -95.9426416 277.82173828 -94.99145508 277.64941406 C-66.62949894 272.58753587 -38.57099383 272.49815598 -9.90625 274.05859375 C-11.62182196 268.02496244 -13.51950608 262.24533674 -16.03125 256.49609375 C-16.54945313 255.29855469 -17.06765625 254.10101563 -17.6015625 252.8671875 C-18.64058465 250.20979588 -18.64058465 250.20979588 -19.90625 249.05859375 C-22.49536168 248.81473556 -25.06097064 248.63327923 -27.65625 248.49609375 C-28.70232422 248.43131836 -28.70232422 248.43131836 -29.76953125 248.36523438 C-64.2509164 246.42218673 -98.82312759 251.52089453 -131.90625 261.05859375 Z M-303.5703125 268.5625 C-304.21742188 269.24183594 -304.86453125 269.92117188 -305.53125 270.62109375 C-308.2132425 273.37557253 -310.91991526 275.99999436 -313.84375 278.49609375 C-320.41649829 284.16670012 -326.42660746 290.35473079 -332.07421875 296.94140625 C-334.98334975 300.30334442 -337.99242359 303.57475998 -340.98828125 306.859375 C-344.31986324 310.67949854 -345.15693016 312.72370181 -345.13671875 317.72265625 C-345.13478516 318.84542969 -345.13285156 319.96820313 -345.13085938 321.125 C-345.11861328 322.29933594 -345.10636719 323.47367187 -345.09375 324.68359375 C-345.09310547 325.83472656 -345.09246094 326.98585938 -345.09179688 328.171875 C-345.05909038 334.54600696 -344.74828092 340.73999376 -343.90625 347.05859375 C-342.91625 347.05859375 -341.92625 347.05859375 -340.90625 347.05859375 C-339.29770422 345.05020073 -337.88290314 343.07323471 -336.46875 340.93359375 C-331.13236876 333.16253214 -325.16468612 326.09661238 -318.90625 319.05859375 C-317.69582031 317.69734375 -317.69582031 317.69734375 -316.4609375 316.30859375 C-314.99780969 314.67723173 -313.52928966 313.05068518 -312.0546875 311.4296875 C-310.5672789 309.78812928 -309.09419457 308.1335203 -307.6328125 306.46875 C-303.60442521 301.89728661 -299.56268299 297.66851797 -294.828125 293.82421875 C-292.23474034 291.44167837 -290.12284796 288.79494572 -287.90625 286.05859375 C-289.85305752 282.88470217 -291.81554711 279.72081145 -293.78125 276.55859375 C-294.61462891 275.19927734 -294.61462891 275.19927734 -295.46484375 273.8125 C-295.99980469 272.95527344 -296.53476562 272.09804688 -297.0859375 271.21484375 C-297.57819824 270.41884766 -298.07045898 269.62285156 -298.57763672 268.80273438 C-299.0160791 268.22716797 -299.45452148 267.65160156 -299.90625 267.05859375 C-302.03277316 266.83509282 -302.03277316 266.83509282 -303.5703125 268.5625 Z M-286.40625 306.93359375 C-287.13658447 307.6196167 -287.86691895 308.30563965 -288.61938477 309.01245117 C-294.01477522 314.12365282 -299.04215117 319.4395562 -303.90625 325.05859375 C-304.59332031 325.7959375 -305.28039062 326.53328125 -305.98828125 327.29296875 C-315.64189769 337.65973524 -324.00092265 349.18345925 -332.15625 360.74609375 C-332.62208496 361.39271973 -333.08791992 362.0393457 -333.56787109 362.70556641 C-336.15870384 366.44635667 -337.82790502 369.37597482 -337.90625 374.05859375 C-337.199516 376.80238458 -336.4472737 379.29694503 -335.46875 381.93359375 C-335.22576172 382.62195313 -334.98277344 383.3103125 -334.73242188 384.01953125 C-334.13597474 385.70361728 -333.52279525 387.38176135 -332.90625 389.05859375 C-329.08095814 389.68115481 -325.71395806 389.86973373 -321.90625 389.05859375 C-318.76390638 386.23981818 -316.98035438 382.70115178 -314.90625 379.05859375 C-313.48962082 376.9403196 -312.05101502 374.83662054 -310.59375 372.74609375 C-310.02563599 371.9247998 -310.02563599 371.9247998 -309.44604492 371.08691406 C-305.15167467 364.90503712 -300.6157772 358.92935031 -295.90625 353.05859375 C-295.26792236 352.26146973 -295.26792236 352.26146973 -294.61669922 351.44824219 C-285.22843028 339.84870125 -274.54790197 329.4949913 -263.90625 319.05859375 C-264.28934326 318.55070312 -264.67243652 318.0428125 -265.06713867 317.51953125 C-268.8752065 312.45869263 -272.5915134 307.33982449 -276.26953125 302.18359375 C-276.80964844 301.48234375 -277.34976563 300.78109375 -277.90625 300.05859375 C-280.74651156 300.05859375 -284.43253407 305.07791616 -286.40625 306.93359375 Z M-263.90625 340.05859375 C-265.65552745 341.92956007 -267.31382835 343.84738471 -268.9609375 345.80859375 C-270.87511175 348.02257842 -272.88155108 350.12673819 -274.90869141 352.23681641 C-280.69293443 358.30772553 -285.87274123 364.72797791 -290.90625 371.43359375 C-291.54111328 372.27760742 -292.17597656 373.12162109 -292.83007812 373.99121094 C-296.19598042 378.536079 -299.22217179 383.07962867 -301.90625 388.05859375 C-295.21254322 388.1883697 -288.78978804 387.75588092 -282.15625 386.87109375 C-281.23714844 386.76990234 -280.31804687 386.66871094 -279.37109375 386.56445312 C-273.59334692 385.79102102 -270.66865062 384.79949416 -266.90625 380.05859375 C-265.81183594 378.87330078 -265.81183594 378.87330078 -264.6953125 377.6640625 C-263.98117187 376.86613281 -263.26703125 376.06820312 -262.53125 375.24609375 C-261.74492187 374.36953125 -260.95859375 373.49296875 -260.1484375 372.58984375 C-258.29248978 370.4946275 -256.47095228 368.37678897 -254.65625 366.24609375 C-249.41177413 360.20435789 -243.59827995 354.67358871 -237.90625 349.05859375 C-239.34036456 345.7490986 -241.11598364 343.6619449 -243.71875 341.18359375 C-246.24167887 338.73405917 -248.62940534 336.29091377 -250.84375 333.55859375 C-251.8646875 332.32109375 -251.8646875 332.32109375 -252.90625 331.05859375 C-256.37581621 331.05859375 -261.48900219 337.75714224 -263.90625 340.05859375 Z M-228.82910156 361.41381836 C-229.4784668 362.08936768 -230.12783203 362.76491699 -230.796875 363.4609375 C-231.50585938 364.18603516 -232.21484375 364.91113281 -232.9453125 365.65820312 C-233.67492187 366.42970703 -234.40453125 367.20121094 -235.15625 367.99609375 C-235.90132812 368.76373047 -236.64640625 369.53136719 -237.4140625 370.32226562 C-239.25644737 372.22370129 -241.0862148 374.13579423 -242.90625 376.05859375 C-240.99810784 377.27422835 -240.99810784 377.27422835 -239.12207031 376.66894531 C-238.06391113 376.31268066 -238.06391113 376.31268066 -236.984375 375.94921875 C-236.20578125 375.68882812 -235.4271875 375.4284375 -234.625 375.16015625 C-233.8103125 374.87914062 -232.995625 374.598125 -232.15625 374.30859375 C-231.35703125 374.04304688 -230.5578125 373.7775 -229.734375 373.50390625 C-225.26621791 371.99002408 -221.07778053 370.29238107 -216.90625 368.05859375 C-217.81109792 366.90340457 -218.7306706 365.75973969 -219.65625 364.62109375 C-220.16671875 363.98300781 -220.6771875 363.34492188 -221.203125 362.6875 C-223.7956756 360.20792752 -225.73141047 359.23056756 -228.82910156 361.41381836 Z M-207.85546875 380.42578125 C-209.7787234 381.23728323 -211.69108355 382.0749295 -213.59375 382.93359375 C-215.6725843 383.80660921 -217.7533448 384.67505112 -219.8359375 385.5390625 C-220.86686523 385.9726709 -221.89779297 386.4062793 -222.95996094 386.85302734 C-255.06146616 399.98836317 -289.64668021 403.19250922 -323.90625 405.05859375 C-322.8025584 408.62574769 -321.70643661 411.73515349 -319.59375 414.8203125 C-319.15804687 415.46419922 -318.72234375 416.10808594 -318.2734375 416.77148438 C-317.82226562 417.42310547 -317.37109375 418.07472656 -316.90625 418.74609375 C-316.45507812 419.40931641 -316.00390625 420.07253906 -315.5390625 420.75585938 C-314.70241133 421.98484549 -313.86291158 423.21190122 -313.01953125 424.4362793 C-311.9684309 425.96798145 -310.93669777 427.5129221 -309.90625 429.05859375 C-265.08145185 426.22209205 -222.2396662 416.22530185 -181.90625 396.05859375 C-183.27983169 391.93784868 -186.15390605 390.48094592 -189.59375 388.12109375 C-190.20669922 387.69119141 -190.81964844 387.26128906 -191.45117188 386.81835938 C-192.67634454 385.96216766 -193.91157979 385.12019338 -195.15649414 384.29296875 C-196.90625 383.05859375 -196.90625 383.05859375 -199.6953125 380.5 C-203.46639645 378.80714114 -204.09775071 379.0977034 -207.85546875 380.42578125 Z M-9.90625 415.05859375 C-11.18764742 416.43480311 -11.18764742 416.43480311 -12.25390625 418.3203125 C-12.68888428 419.0205957 -13.1238623 419.72087891 -13.57202148 420.44238281 C-14.03294189 421.20260742 -14.4938623 421.96283203 -14.96875 422.74609375 C-28.03007946 443.55588966 -44.18535181 461.45624922 -64.09375 475.93359375 C-64.82996582 476.46919922 -65.56618164 477.00480469 -66.32470703 477.55664062 C-71.32469898 481.11546499 -76.48380868 484.18737317 -81.90625 487.05859375 C-81.90625 487.38859375 -81.90625 487.71859375 -81.90625 488.05859375 C-64.82339426 490.43489925 -47.95345117 491.38413174 -30.71875 491.43359375 C-29.36842178 491.44483276 -29.36842178 491.44483276 -27.99081421 491.45629883 C-5.06925542 491.61293283 20.53746118 489.13731371 38.09375 472.68359375 C42.80524104 467.66025089 44.57892693 463.5336495 45.59375 456.68359375 C44.27624639 447.13169259 38.21184418 439.35210609 30.984375 433.2890625 C20.67192247 425.6239342 3.31019753 415.05859375 -9.90625 415.05859375 Z M-94.62939453 454.20263672 C-99.22765291 457.95086321 -104.42440301 460.81479559 -109.53125 463.80859375 C-110.6135791 464.45086914 -111.6959082 465.09314453 -112.81103516 465.75488281 C-120.07688781 470.04616939 -127.39082266 474.21870344 -134.90625 478.05859375 C-131.28004051 480.47606674 -127.86503751 480.97853191 -123.65625 481.68359375 C-122.91761719 481.81765625 -122.17898438 481.95171875 -121.41796875 482.08984375 C-113.25670028 483.50043336 -107.55318209 483.44948113 -100.21875 479.49609375 C-99.52177002 479.13257813 -98.82479004 478.7690625 -98.10668945 478.39453125 C-96.02922007 477.30115137 -93.96593437 476.1850631 -91.90625 475.05859375 C-90.81054688 474.46175781 -89.71484375 473.86492187 -88.5859375 473.25 C-78.34363257 467.46028977 -69.12035357 460.33887311 -59.90625 453.05859375 C-71.36827457 441.59656918 -84.19754902 444.81061315 -94.62939453 454.20263672 Z M-247.90625 478.05859375 C-244.32690143 481.13459643 -240.25646864 482.75119652 -235.90625 484.43359375 C-235.12096924 484.73740967 -234.33568848 485.04122559 -233.52661133 485.35424805 C-205.23437829 495.94744486 -176.63765497 497.20052974 -146.90625 494.05859375 C-149.84129603 491.12354772 -153.36091266 491.00413238 -157.3125 490.2890625 C-158.17258667 490.12767792 -159.03267334 489.96629333 -159.91882324 489.80001831 C-162.74637822 489.27300511 -165.5760688 488.75880301 -168.40625 488.24609375 C-169.36821289 488.06940155 -170.33017578 487.89270935 -171.32128906 487.71066284 C-184.48362679 485.29456736 -197.66462536 483.05733711 -210.90625 481.12109375 C-211.5964624 481.01977142 -212.2866748 480.9184491 -212.99780273 480.8140564 C-227.98164442 478.61361476 -227.98164442 478.61361476 -243.09375 477.99609375 C-244.01542969 478.00511719 -244.93710938 478.01414062 -245.88671875 478.0234375 C-246.88638672 478.04083984 -246.88638672 478.04083984 -247.90625 478.05859375 Z " fill="#000000" transform="translate(384.90625,0.94140625)"/>
</svg>
