<?xml version="1.0" encoding="utf-8"?>
<!-- Generator: Adobe Illustrator 24.1.0, SVG Export Plug-In . SVG Version: 6.00 Build 0)  -->
<svg version="1.1" id="Layer_1" xmlns="http://www.w3.org/2000/svg" xmlns:xlink="http://www.w3.org/1999/xlink" x="0px" y="0px"
	 viewBox="0 0 512 512" style="enable-background:new 0 0 512 512;" xml:space="preserve">
<path d="M487.3,13c10.2,8.3,22.2,18.5,24.7,32c0.8,9.9,0.9,19.6-5.5,27.9c-4.6,5.2-9.5,10.2-14.5,15.1c-0.8,0.8-1.6,1.5-2.4,2.3
	c-1.9,1.9-3.8,3.8-5.7,5.7c-0.5-0.4-0.9-0.9-1.4-1.3c-0.9-0.8-0.9-0.8-1.9-1.7c-0.9-0.8-0.9-0.8-1.8-1.7c-2.1-1.7-2.1-1.7-5.9-1.3
	c-2.1,1.7-4,3.4-5.9,5.4c-0.6,0.6-1.2,1.2-1.8,1.8c-2,2-3.9,3.9-5.9,5.9c-1.4,1.4-2.8,2.8-4.3,4.3c-3.9,3.9-7.8,7.8-11.7,11.8
	c-4.2,4.2-8.4,8.4-12.6,12.7c-7.3,7.3-14.6,14.6-21.9,22c-7.7,7.7-15.3,15.4-23,23.1c-0.7,0.7-0.7,0.7-1.4,1.4
	c-2.4,2.4-4.8,4.8-7.3,7.3c-17.2,17.2-34.3,34.4-51.5,51.6c-16.6,16.7-33.3,33.4-50,50.1c-0.5,0.5-1,1-1.6,1.6
	c-11.7,11.7-23.4,23.5-35.1,35.2c-1,1-2,2-3,3c-1,1-2,2-3,3c-0.5,0.5-1,1-1.5,1.5c-2.5,2.5-4.9,4.9-7.4,7.4
	c-11.5,11.5-23,23.1-34.5,34.6c-7.2,7.2-14.4,14.5-21.7,21.7c-5,5-9.9,10-14.9,14.9c-3,3-6,6-9.1,9.1c-1.4,1.4-2.8,2.8-4.1,4.2
	c-6.5,6.5-12.9,13-20,18.9c-1,0.9-2,1.7-3,2.6C86.7,470.8,49.5,495.1,11,507c4.3-14.3,11.1-27.8,18-41c0.4-0.7,0.7-1.4,1.1-2.1
	C41.4,442.4,55.4,422.6,71,404c0.4-0.5,0.8-1,1.3-1.5c8-9.6,16.5-18.5,25.3-27.3c1.4-1.4,2.9-2.9,4.3-4.3c3.9-3.9,7.8-7.8,11.8-11.7
	c4.2-4.2,8.5-8.5,12.7-12.7c7.3-7.3,14.7-14.7,22-22c7.7-7.7,15.4-15.3,23-23c0.5-0.5,1-1,1.5-1.5c2.4-2.4,4.9-4.9,7.3-7.3
	c17.2-17.2,34.4-34.4,51.6-51.6c16.7-16.7,33.4-33.4,50.1-50.1c0.5-0.5,1-1,1.6-1.6c5.2-5.2,10.4-10.3,15.5-15.5
	c10.5-10.5,21.1-21.1,31.6-31.6c0.5-0.5,1-1,1.5-1.5c32.3-32.3,64.7-64.6,97-96.9c-1.7-3.8-4-6.2-7-9c2.3-5.3,6.6-8.9,10.6-12.9
	c0.8-0.8,1.6-1.6,2.4-2.4C450,4.6,469.3-0.3,487.3,13z"/>
<path d="M70.8,14.2c4,3.3,7.6,7,11.2,10.7c0.8,0.8,1.5,1.6,2.3,2.4c1.9,1.9,3.8,3.8,5.7,5.8c-1.7,3.8-4,6.2-7,9
	c1.6,4.2,4.8,7,7.9,10.1c0.6,0.6,1.2,1.2,1.9,1.9c2.1,2.1,4.1,4.1,6.2,6.2c1.5,1.5,3,2.9,4.4,4.4c3.2,3.2,6.4,6.3,9.6,9.5
	c5,5,10.1,10,15.1,15c14.3,14.3,28.6,28.5,43,42.7c7.9,7.9,15.8,15.7,23.7,23.6c5,5,10,10,15,14.9c3.1,3.1,6.2,6.2,9.3,9.3
	c1.4,1.4,2.9,2.9,4.4,4.3c2,1.9,3.9,3.9,5.9,5.9c0.6,0.6,1.2,1.1,1.8,1.7c1.6,1.6,1.6,1.6,3.8,4.4c-0.5,3.8-2.2,5.5-4.8,8.2
	c-0.8,0.8-1.6,1.6-2.4,2.5c-0.9,0.9-1.8,1.8-2.7,2.7c-0.9,0.9-1.8,1.8-2.7,2.7c-1.9,1.9-3.8,3.8-5.7,5.7c-2.5,2.4-4.9,4.9-7.3,7.4
	c-2.3,2.4-4.7,4.7-7,7c-0.9,0.9-1.7,1.8-2.6,2.7c-0.8,0.8-1.6,1.6-2.5,2.4c-0.7,0.7-1.4,1.4-2.2,2.2c-2,1.4-2,1.4-4,1.2
	c-3.5-1.3-5.7-4-8.3-6.6c-0.6-0.6-1.2-1.2-1.9-1.9c-2.1-2.1-4.2-4.2-6.2-6.3c-1.5-1.5-3-3-4.5-4.5c-4-4-8.1-8.1-12.1-12.2
	c-4.2-4.2-8.4-8.5-12.7-12.7c-8-8-16-16-24-24c-9.1-9.1-18.2-18.2-27.3-27.4C75.4,126.5,56.7,107.8,38,89c-2.7,1.3-5,2.6-7.2,4.6
	c-1.4,1.2-1.4,1.2-2.8,2.4c-3.2-3.1-6.4-6.2-9.6-9.4c-1.1-1.1-2.2-2.1-3.3-3.2C6.4,75,0,67.8-0.3,55.1C-0.4,47.6-0.3,41.4,4,35
	c0.5-0.7,0.9-1.4,1.4-2.1C14.2,20.7,25.8,8.6,40.9,5.4C52.6,3.9,61.6,7.2,70.8,14.2z"/>
<path d="M320,283c3.6,1.5,5.8,3.6,8.6,6.3c0.9,0.9,1.8,1.8,2.8,2.7c1,1,2,2,3,3c1.1,1.1,2.1,2.1,3.2,3.2c2.9,2.9,5.8,5.7,8.6,8.6
	c3,3,6,6,9,9c5.1,5.1,10.1,10.1,15.2,15.2c5.8,5.8,11.7,11.7,17.5,17.5c5,5,10.1,10.1,15.1,15.1c3,3,6,6,9,9
	c2.8,2.8,5.7,5.7,8.5,8.5c1,1,2.1,2.1,3.1,3.1c6.6,6.6,12.6,13.4,18.5,20.7c1,1.2,2.1,2.5,3.2,3.7c20.7,24.5,36.5,52.7,49.7,81.8
	c0.4,0.8,0.8,1.7,1.2,2.5c2.1,4.6,3.7,9,5,13.9c-41.5-13.7-80.2-38.9-112.2-68.4c-2.1-1.9-4.2-3.7-6.3-5.6c-5.1-4.5-9.9-9.2-14.6-14
	c-1-1-2-2-3-3c-2.7-2.7-5.4-5.4-8-8.1c-2.8-2.8-5.6-5.6-8.4-8.4c-5.3-5.3-10.6-10.6-15.9-15.9c-6-6.1-12.1-12.1-18.1-18.2
	c-12.4-12.4-24.9-24.9-37.3-37.3c1.6-3.4,3.3-5.6,6-8.2c1.2-1.2,1.2-1.2,2.5-2.5c0.9-0.9,1.8-1.8,2.7-2.7c0.9-0.9,1.8-1.8,2.7-2.7
	c2.4-2.4,4.8-4.8,7.2-7.2c2.5-2.4,4.9-4.9,7.4-7.3C310.3,292.6,315.2,287.8,320,283z"/>
</svg>
